<svg version="1.0" xmlns="http://www.w3.org/2000/svg"
 width="70" height="70" viewBox="0 0 491 335"
 preserveAspectRatio="xMidYMid meet">
<g transform="translate(0,335) scale(0.1,-0.1)"
fill="white" stroke="none">
<path d="M1855 3105 c-176 -31 -316 -150 -441 -373 -26 -45 -50 -81 -53 -80
-3 2 -44 22 -91 45 -110 54 -195 76 -295 76 -142 0 -286 -64 -400 -178 -117
-116 -172 -250 -162 -395 6 -93 27 -147 60 -155 31 -8 32 -8 397 120 338 118
358 121 412 68 30 -30 63 -119 309 -838 121 -351 268 -777 360 -1042 84 -243
97 -263 169 -263 21 0 236 69 501 161 255 88 579 200 719 249 140 49 426 147
635 220 238 82 388 139 403 153 27 25 72 112 260 507 72 151 134 289 137 305
5 23 -29 130 -140 450 -81 231 -168 481 -193 555 -55 164 -80 195 -145 187
-23 -2 -330 -105 -682 -227 -352 -122 -768 -266 -925 -320 -157 -54 -391 -135
-520 -180 -249 -86 -301 -96 -358 -66 -45 23 -127 150 -143 222 -11 47 -10 59
4 89 9 19 27 41 39 49 17 11 699 256 714 256 12 0 34 36 34 56 0 46 -61 147
-129 214 -134 133 -274 172 -476 135z m1225 -918 c0 -5 130 -367 305 -851 69
-192 124 -355 121 -361 -4 -12 -143 -65 -168 -65 -11 0 -190 480 -369 990 -25
70 -42 104 -51 102 -50 -11 -248 -89 -248 -98 0 -6 31 -96 69 -200 167 -461
203 -564 198 -576 -5 -15 -165 -74 -174 -64 -3 3 -68 178 -144 387 -76 210
-141 384 -143 387 -9 8 -236 -80 -236 -91 0 -11 127 -369 326 -920 57 -158
104 -291 104 -296 0 -12 -172 -73 -181 -64 -3 5 -95 253 -204 553 -275 761
-285 789 -276 794 7 5 279 105 396 146 65 22 515 186 580 210 45 17 95 26 95
17z m841 -340 c111 -75 106 -233 -10 -294 -55 -29 -102 -29 -158 -2 -119 57
-124 230 -9 300 45 28 133 26 177 -4z m726 -235 c-8 -15 -76 -156 -153 -315
-76 -158 -143 -286 -148 -284 -14 5 -168 459 -158 469 12 12 455 166 464 161
5 -2 2 -16 -5 -31z"/>
</g>
</svg>
